<?xml version="1.0" standalone="no"?> <!DOCTYPE svg PUBLIC "-//W3C//DTD SVG 1.0//EN" "http://www.w3.org/TR/2001/REC-SVG-20010904/DTD/svg10.dtd" > <svg xmlns="http://www.w3.org/2000/svg" width="100%" height="100%">
<defs >
<font id="iconic" horiz-adv-x="1330" ><font-face
    font-family="Iconic Stroke"
    units-per-em="2048"
    panose-1="2 11 6 3 2 1 2 2 2 4"
    ascent="1434"
    descent="-389"
    alphabetic="0" />
<missing-glyph horiz-adv-x="512" />
<glyph unicode=" " glyph-name="null" horiz-adv-x="512" />
<glyph unicode="!" glyph-name="null" horiz-adv-x="1502" d="M687 1372L1373 686H1201V0H172V686H0L687 1372ZM1030 171V786L687 1029L343 786V171H601V429H772V171H1030Z" />
<glyph unicode="&quot;" glyph-name="null" horiz-adv-x="1669" d="M856 180V694Q856 800 896 893T1006 1056T1169 1166T1370 1207V1036Q1299 1036 1237 1009T1128 936T1054 827T1027 694H1370V180H856ZM0 180V694Q0 800 40 893T150 1056T313 1166T514 1207V1036Q443
1036 381 1009T272 936T198 827T171 694H514V180H0Z" />
<glyph unicode="#" glyph-name="null" horiz-adv-x="1551" d="M0 685Q0 780 24 867T93 1031T200 1169T339 1276T503 1345T685 1370Q779 1370 866 1346T1030 1277T1169 1170T1276 1031T1345 868T1370 685Q1370 543 1316 419T1169 201T952 54T685 0Q543 0 419 54T201
201T54 418T0 685ZM685 1027L344 686H599V342H770V686H1027L685 1027Z" />
<glyph unicode="$" glyph-name="null" horiz-adv-x="1551" d="M686 1372Q828 1372 953 1318T1171 1171T1318 953T1372 686Q1372 544 1318 419T1171 201T953 54T686 0Q544 0 419 54T201 201T54 419T0 686Q0 828 54 953T201 1171T419 1318T686 1372ZM1029 686L687
1028V772H343V600H687V343L1029 686Z" />
<glyph unicode="%" glyph-name="null" horiz-adv-x="1551" d="M1372 686Q1372 544 1318 419T1171 201T953 54T686 0Q544 0 419 54T201 201T54 419T0 686Q0 828 54 953T201 1171T419 1318T686 1372Q828 1372 953 1318T1171 1171T1318 953T1372 686ZM686 343L1028
685H772V1029H600V685H343L686 343Z" />
<glyph unicode="&amp;" glyph-name="null" horiz-adv-x="1551" d="M1370 685Q1370 591 1346 504T1277 340T1170 201T1031 94T868 25T685 0Q543 0 419 54T201 201T54 418T0 685Q0 827 54 951T201 1169T418 1316T685 1370Q780 1370 867 1346T1031 1277T1169 1170T1276
1031T1345 867T1370 685ZM943 599V514L1114 685L943 856V770H429V856L258 685L429 514V599H943Z" />
<glyph unicode="&apos;" glyph-name="null" horiz-adv-x="1669" d="M856 180V694L1370 1207V180H856ZM0 180V694L514 1207V180H0Z" />
<glyph unicode="(" glyph-name="null" horiz-adv-x="1551" d="M686 1372Q828 1372 953 1318T1171 1171T1318 953T1372 686Q1372 544 1318 419T1171 201T953 54T686 0Q544 0 419 54T201 201T54 419T0 686Q0 828 54 953T201 1171T419 1318T686 1372ZM1115 686L943
858V772H772V944H857L686 1115L514 944H600V772H429V858L257 686L429 515V601H600V429H514L686 257L857 429H772V601H943V515L1115 686Z" />
<glyph unicode=")" glyph-name="null" horiz-adv-x="1542" d="M1372 172L1200 0L600 601L343 344L0 1373L1029 1030L772 772L1372 172V172Z" />
<glyph unicode="*" glyph-name="null" horiz-adv-x="1551" d="M685 1370Q779 1370 866 1346T1030 1277T1169 1170T1276 1031T1345 868T1370 685Q1370 543 1316 419T1169 201T952 54T685 0Q543 0 419 54T201 201T54 418T0 685Q0 780 24 867T93 1031T200 1169T339
1276T503 1345T685 1370ZM770 943H856L685 1114L514 943H599V429H514L685 258L856 429H770V943Z" />
<glyph unicode="+" glyph-name="null" horiz-adv-x="1542" d="M1370 514H856V0H514V514H0V856H514V1370H856V856H1370V514Z" />
<glyph unicode="," glyph-name="null" horiz-adv-x="1669" d="M1286 644Q1322 644 1347 619T1372 558V215Q1372 180 1347 155T1286 130H1029V644V816Q1029 887 1002 949T929 1058T820 1132T686 1159Q615 1159 553 1132T444 1059T370 950T343 816V644V130H86Q50
130 25 155T0 215V558Q0 594 25 619T86 644H171V816Q171 922 211 1016T322 1179T485 1289T686 1330Q792 1330 886 1290T1049 1180T1159 1016T1200 816V644H1286V644Z" />
<glyph unicode="-" glyph-name="null" horiz-adv-x="1586" d="M0 560V903H1372V560H0V560Z" />
<glyph unicode="." glyph-name="null" horiz-adv-x="1576" d="M1370 1199H0V1370H1370V1199ZM856 856H0V1027H856V856ZM1370 510H0V681H1370V510ZM171 85Q171 50 146 25T85 0Q50 0 25 25T0 85Q0 121 25 146T85 171Q121 171 146 146T171 85ZM514 85Q514 67 507
52T489 25T461 7T427 0Q410 0 395 6T368 24T349 51T342 85Q342 103 349 118T367 146T394 164T427 171Q463 171 488 146T514 85ZM856 85Q856 50 831 25T770 0Q735 0 710 25T685 85Q685 121 710 146T770 171Q806 171 831 146T856 85Z" />
<glyph unicode="/" glyph-name="null" horiz-adv-x="1556" d="M1344 1344Q1370 1319 1370 1284T1344 1223L1170 1049Q1212 986 1229 915T1239 772T1201 633T1115 510L859 253Q796 190 718 159T556 127Q494 127 435 145T321 199L145 25Q133 12 118 6T85 0Q68 0
53 6T25 25Q0 50 0 85T25 145L199 321Q158 383 141 454T130 596T168 736T254 859L511 1115Q574 1178 652 1209T813 1241Q875 1241 935 1224T1050 1170L1224 1344Q1249 1370 1284 1370T1344 1344ZM1070 812Q1070 871 1044 923L914 793Q902 779 887 773T854 767Q837
767 822 773T793 793Q767 818 767 853T793 914L924 1044Q898 1056 870 1063T813 1070Q761 1070 715 1051T632 995L374 738Q338 701 319 655T299 556Q299 497 325 447L454 574Q479 599 513 599T574 574Q599 548 599 513T574 453L447 325Q499 299 556 299Q608 299
654 318T739 374L995 632Q1031 668 1050 714T1070 812Z" />
<glyph unicode="0" glyph-name="null" horiz-adv-x="1055" d="M429 1201Q376 1201 329 1181T247 1125T192 1043T172 943Q172 882 198 829T274 738Q347 683 380 625T423 516H435Q440 541 450 569T479 625T523 682T585 738Q634 775 660 828T687 943Q687 996 667
1043T611 1125T529 1180T429 1201ZM429 1373Q518 1373 596 1339T732 1247T824 1110T858 943Q858 837 812 749T688 601Q652 574 627 538T601 454V344H258V454Q258 502 233 538T171 601Q93 660 47 748T0 943Q0 1032 34 1110T126 1246T262 1339T429 1373ZM258 172H601V0H258V172Z"
/>
<glyph unicode="1" glyph-name="null" horiz-adv-x="1586" d="M1373 343H1030V0H0V1030H343V1373H1373V343ZM858 343H343V686H172V172H858V343ZM1201 1030H515V515H1201V1030Z" />
<glyph unicode="2" glyph-name="null" horiz-adv-x="1556" d="M685 856Q721 856 752 843T806 806T842 752T856 685Q856 649 843 618T806 564T752 528T685 514Q649 514 618 527T564 564T528 618T514 685Q514 721 527 752T564 806T618 842T685 856ZM1222 1104Q1291
1017 1330 911T1370 685Q1370 543 1316 419T1169 201T952 54T685 0Q543 0 419 54T201 201T54 418T0 685Q0 804 38 909T144 1103Q155 1095 167 1090T195 1084Q213 1084 228 1090T255 1109T274 1136T281 1170Q281 1184 276 1197T262 1221Q334 1278 419 1314T600 1363Q603
1330 627 1308T685 1285Q718 1285 741 1307T769 1362Q864 1351 948 1315T1104 1223Q1095 1213 1090 1200T1084 1170Q1084 1134 1109 1109T1169 1084Q1184 1084 1197 1089T1222 1104ZM685 342Q756 342 818 369T926 442T1000 551T1027 685Q1027 757 1001 819T926
927L685 1170L443 927Q396 881 369 819T342 685Q342 614 369 552T442 443T551 369T685 342Z" />
<glyph unicode="3" glyph-name="null" horiz-adv-x="1537" d="M685 1370L1370 685L1128 443L856 714V0H514V714Q463 663 414 615T327 528L242 443L0 685L685 1370Z" />
<glyph unicode="4" glyph-name="null" horiz-adv-x="1537" d="M1372 686L687 0L444 243L714 514H0V858H714Q663 909 615 957T529 1044L444 1129L687 1372L1372 686Z" />
<glyph unicode="5" glyph-name="null" horiz-adv-x="1537" d="M686 0L0 686L243 929L514 658V1372H858V658L1044 844L1129 929L1372 686L686 0Z" />
<glyph unicode="6" glyph-name="null" horiz-adv-x="1561" d="M0 685L684 1370L926 1128L656 856H1370V512H656L841 327L926 242L684 0L0 685Z" />
<glyph unicode="7" glyph-name="null" horiz-adv-x="1546" d="M514 601H256V430L0 686L256 944V772H514V601ZM856 772H1112V944L1370 686L1112 430V601H856V772Z" />
<glyph unicode="8" glyph-name="null" horiz-adv-x="702" d="M343 514V257H514L257 0L0 257H171V514H343V514ZM171 857V1115H0L257 1372L514 1115H343V857H171V857Z" />
<glyph unicode="9" glyph-name="null" horiz-adv-x="1522" d="M772 514V257H944L686 0L429 257H601V514H772V514ZM601 857V1115H429L686 1372L944 1115H772V857H601V857ZM515 600H257V429L0 686L257 943V772H515V600V600ZM858 772H1115V943L1372 686L1115 429V600H858V772V772Z"
/>
<glyph unicode=":" glyph-name="null" horiz-adv-x="1669" d="M1370 514V0H856L1052 196L856 393L977 514L1174 318L1370 514ZM318 1174L511 980L390 858L196 1052L0 856V1370H514L318 1174ZM318 196L514 0H0V514L196 318L393 514L514 393L318 196ZM1370 856L1174
1052L980 858L858 980L1052 1174L856 1370H1370V856Z" />
<glyph unicode=";" glyph-name="null" horiz-adv-x="1566" d="M856 0V514H1370L1174 318L1370 122L1249 0L1054 197L856 0ZM197 1054L3 1248L123 1369L318 1174L514 1370V856H0L197 1054ZM197 318L0 514H514V0L318 197L122 0L0 122L197 318ZM856 1370L1054 1174L1248
1369L1369 1248L1174 1054L1370 856H856V1370Z" />
<glyph unicode="&lt;" glyph-name="null" horiz-adv-x="1586" d="M858 343H772V86Q772 50 747 25T687 0Q651 0 626 25T601 86V343H515V514H601V1286Q601 1322 626 1347T687 1372Q722 1372 747 1347T772 1286V514H858V343ZM1373 857H1287V86Q1287 50 1262 25T1201
0Q1183 0 1168 6T1141 25T1122 52T1115 86V857H1030V1029H1115V1286Q1115 1304 1122 1319T1140 1347T1167 1365T1201 1372Q1237 1372 1262 1347T1287 1286V1029H1373V857ZM343 686H258V86Q258 50 233 25T172 0Q154 0 139 6T112 25T93 52T86 86V686H0V857H86V1286Q86
1304 93 1319T111 1347T138 1365T172 1372Q208 1372 233 1347T258 1286V857H343V686Z" />
<glyph unicode="=" glyph-name="null" horiz-adv-x="1551" d="M686 1372Q828 1372 953 1318T1171 1171T1318 953T1372 686Q1372 544 1318 419T1171 201T953 54T686 0Q544 0 419 54T201 201T54 419T0 686Q0 828 54 953T201 1171T419 1318T686 1372ZM1029 772H772V1029H600V772H343V600H600V343H772V600H1029V772Z"
/>
<glyph unicode="&gt;" glyph-name="null" horiz-adv-x="1581" d="M1370 1199H0V1370H1370V1199ZM856 856H0V1027H856V856ZM1370 342H0V514H1370V342ZM1027 0H0V171H1027V0ZM1370 86Q1370 50 1345 25T1285 0Q1249 0 1224 25T1199 86Q1199 121 1224 146T1285 171Q1320
171 1345 146T1370 86Z" />
<glyph unicode="?" glyph-name="null" horiz-adv-x="1576" d="M342 342V685L514 856L685 685L1027 1027L1370 685V342H342ZM1370 171L1199 0H171H0V171V1199L171 1370V171H1370Z" />
<glyph unicode="@" glyph-name="null" horiz-adv-x="1546" d="M1029 343Q987 343 953 362T894 414Q850 380 798 361T686 342Q615 342 553 369T444 442T370 551T343 685Q343 756 370 818T443 927T552 1001T686 1028H1029V515H1168L1169 513Q1184 554 1192 597T1201
686Q1201 792 1161 886T1050 1050T886 1160T686 1201Q579 1201 486 1161T322 1050T212 886T171 686Q171 580 211 487T322 323T485 213T686 172Q793 172 886 212T1050 323L1171 201Q1077 107 953 54T686 0Q591 0 504 24T340 94T201 201T94 340T25 503T0 686Q0 828
54 953T201 1171T419 1319T686 1373Q828 1373 953 1319T1171 1172T1318 953T1372 686Q1372 592 1348 506T1280 343H1029ZM857 856H686Q651 856 620 843T565 806T528 751T514 685Q514 649 527 618T564 564T619 527T686 513Q721 513 752 526T806 563T843 618T857
685V772V856Z" />
<glyph unicode="A" glyph-name="null" horiz-adv-x="1591" d="M1026 1201H1373V1029H1026H854H511H340H0V1201H340V1372H511V1201H854V1372H1026V1201ZM1201 343H172V514H1201V343V343ZM1201 686H172V858H1201V686V686ZM1030 0H172V171H1201L1030 0V0Z" />
<glyph unicode="B" glyph-name="null" horiz-adv-x="1707" />
<glyph unicode="C" glyph-name="null" horiz-adv-x="1707" />
<glyph unicode="D" glyph-name="null" horiz-adv-x="1707" />
<glyph unicode="E" glyph-name="null" horiz-adv-x="1502" d="M515 1029H857V857H515V1029ZM1371 856H1200V0H172Q136 0 105 13T51 50T14 105T0 172V1201Q0 1237 13 1268T50 1322T105 1358T172 1372H1200V1200H1373L1200 1027L1371 856ZM1029 1201H343V172H1029V1201Z" />
<glyph unicode="F" glyph-name="null" horiz-adv-x="1707" />
<glyph unicode="G" glyph-name="null" horiz-adv-x="1707" />
<glyph unicode="H" glyph-name="null" horiz-adv-x="1707" />
<glyph unicode="I" glyph-name="null" horiz-adv-x="1707" />
<glyph unicode="J" glyph-name="null" horiz-adv-x="1605" d="M1111 847Q1163 837 1210 814T1293 750T1349 651T1370 514Q1370 421 1341 356T1263 250T1153 190T1027 171H856Q821 171 790 158T735 121T699 67T685 0Q614 0 552 27T443 100T369 209T342 342V514Q342
560 351 599H514Q518 599 521 598T529 596Q514 563 514 514V342Q514 300 532 265T582 206Q629 269 700 305T856 342H1027Q1070 342 1099 352T1148 377T1177 412T1192 450T1198 486T1199 514Q1199 531 1197 556T1183 606T1146 652T1074 681Q1091 719 1101 760T1111
847ZM342 1199Q278 1199 243 1180T192 1133T174 1076T171 1027Q171 1011 173 983T192 926T243 877T342 856H514Q598 856 669 819T788 719Q819 743 837 778T856 856V1027Q856 1083 838 1117T794 1169T739 1193T685 1199H342ZM685 1370Q749 1370 810 1350T920 1287T997
1180T1027 1027V856Q1027 785 1000 723T927 615T818 541T685 514Q685 549 672 580T635 634T580 671T514 685H342Q278 685 217 704T107 764T30 870T0 1027Q0 1122 29 1187T107 1293T216 1352T342 1370H685Z" />
<glyph unicode="K" glyph-name="null" horiz-adv-x="1707" />
<glyph unicode="L" glyph-name="null" horiz-adv-x="1325" d="M600 1370Q688 1370 766 1337T902 1245T993 1108T1027 941V256Q1027 203 1007 157T952 75T871 20T771 0H258Q204 0 157 20T75 75T20 156T0 256V856H171V941Q171 1030 205 1108T297 1244T433 1336T600
1370ZM342 856H856V941Q856 995 836 1042T781 1124T700 1179T600 1199Q547 1199 500 1179T418 1124T363 1042T342 941V856ZM771 171Q789 171 804 178T831 196T849 223T856 256V685H171V256Q171 239 178 224T196 197T224 178T258 171H771ZM600 427Q600 410 594 395T575
368T548 349T514 342Q496 342 481 349T454 367T436 394T429 427Q429 445 435 461T453 488T480 507T514 514Q550 514 575 489T600 427Z" />
<glyph unicode="M" glyph-name="null" horiz-adv-x="1669" d="M1372 1209V180H0V1209H1372ZM306 1037L625 718Q651 693 686 693T747 718L1066 1037H306ZM1200 351V929L868 597Q830 559 783 540T686 521Q636 521 589 540T504 597L171 929V351H1200Z" />
<glyph unicode="N" glyph-name="null" horiz-adv-x="1707" />
<glyph unicode="O" glyph-name="null" horiz-adv-x="1707" />
<glyph unicode="P" glyph-name="null" horiz-adv-x="1586" d="M1272 1271Q1322 1221 1347 1158T1372 1029T1347 900T1272 786L486 0H0L1 486L787 1271Q838 1322 901 1347T1030 1372Q1096 1372 1158 1347T1272 1271ZM1151 907L908 1150L173 415V343H343V171H415L1151 907Z" />
<glyph unicode="Q" glyph-name="null" horiz-adv-x="1596" d="M687 1037Q286 1037 199 826Q180 781 175 732T173 634T188 537T215 447Q251 472 287 487T368 510T469 520T601 523H1169Q1182 561 1191 606T1201 694Q1201 736 1196 777T1173 857T1122 928T1031 985T890
1023T687 1037ZM687 1209Q773 1209 857 1201T1017 1171T1159 1112T1271 1018T1346 881T1373 694Q1373 629 1359 568T1328 458Q1309 402 1284 351H601Q537 351 492 350T414 345T355 330T303 300T246 252T172 180Q140 212 106 273T45 413T7 580T5 758T57 928T177
1072T382 1172T687 1209Z" />
<glyph unicode="R" glyph-name="null" horiz-adv-x="1707" />
<glyph unicode="S" glyph-name="null" horiz-adv-x="1707" />
<glyph unicode="T" glyph-name="null" horiz-adv-x="1707" />
<glyph unicode="U" glyph-name="null" horiz-adv-x="1707" />
<glyph unicode="V" glyph-name="null" horiz-adv-x="1581" d="M342 351Q271 351 209 378T101 451T27 560T0 694Q0 765 27 827T100 935T209 1009T342 1036V351ZM514 1036L856 1207V180L514 351V1036ZM1370 607H1027V779H1370V607Z" />
<glyph unicode="W" glyph-name="null" horiz-adv-x="1571" d="M1167 514Q1163 501 1158 489T1148 464L1291 322L1048 79L906 222Q893 217 881 214T856 206V0H514V206Q501 210 489 213T464 222L322 79L79 322L223 464Q217 477 212 489T203 514H0V856H203Q207 869
212 881T223 906L79 1048L322 1291L464 1147Q477 1153 489 1156T514 1164V1370H856V1164Q869 1160 881 1157T906 1147L1048 1291L1291 1048L1148 906Q1153 893 1158 881T1167 856H1370V514H1167ZM685 510Q721 510 752 523T806 560T842 614T856 681Q856 716 843
747T806 801T752 838T685 852Q649 852 618 839T564 802T528 747T514 681Q514 645 527 614T564 560T618 524T685 510Z" />
<glyph unicode="X" glyph-name="null" horiz-adv-x="1551" d="M686 1372Q828 1372 953 1318T1171 1171T1318 953T1372 686Q1372 544 1318 419T1171 201T953 54T686 0Q544 0 419 54T201 201T54 419T0 686Q0 828 54 953T201 1171T419 1318T686 1372ZM807 686L1025
904L904 1025L686 807L468 1025L347 904L565 686L347 468L468 346L686 565L904 346L1025 468L807 686Z" />
<glyph unicode="Y" glyph-name="null" horiz-adv-x="1551" d="M686 1373Q828 1373 953 1319T1171 1172T1318 953T1372 686Q1372 591 1348 504T1279 340T1172 202T1033 94T869 25T686 0Q591 0 504 24T340 94T201 201T94 340T25 503T0 686Q0 828 54 953T201 1171T419
1319T686 1373ZM1113 904L992 1025L580 612L385 807L264 686L580 370L1113 904Z" />
<glyph unicode="Z" glyph-name="null" horiz-adv-x="972" d="M426 985Q426 968 414 956T385 943Q368 943 356 955T344 985Q344 1002 356 1014T385 1026Q402 1026 414 1014T426 985ZM599 1370Q635 1370 660 1345T685 1284V342Q685 271 658 209T585 101T476 27T342
0Q271 0 209 27T101 100T27 209T0 342V1284Q0 1320 25 1345T85 1370H599ZM215 514Q232 514 244 526T256 555Q256 572 244 584T215 596Q198 596 186 584T174 555Q174 538 186 526T215 514ZM427 342Q445 342 461 349T488 367T507 394T514 427Q514 463 489 488T427
514Q410 514 395 507T368 489T349 461T342 427Q342 392 367 367T427 342ZM514 1199H171V685H258Q258 720 283 745T344 770Q380 770 405 745T430 685H514V1199Z" />
<glyph unicode="[" glyph-name="null" horiz-adv-x="1360" d="M1023 1110Q1109 1024 1154 915T1199 685Q1199 602 1178 526T1117 383T1024 261T902 167T759 107T600 85V0L429 171L600 342V256Q688 256 766 290T902 382T993 518T1027 685Q1027 772 996 849T903
988L1023 1110ZM600 1027V1112Q511 1112 433 1079T297 987T205 851T171 685Q171 598 203 521T297 382L177 260Q91 346 46 455T0 685Q0 767 21 843T82 987T176 1108T297 1202T440 1262T600 1284V1370L771 1199L600 1027Z" />
<glyph unicode="\" glyph-name="null" horiz-adv-x="1055" d="M429 1200Q377 1200 330 1181T247 1125Q210 1088 191 1042T171 943Q171 892 190 845T247 762Q250 759 266 742T308 695T364 623T429 529Q462 581 493 623T550 695T592 742T612 763Q647 798 666 845T686
943Q686 995 667 1041T611 1125Q574 1162 527 1181T429 1200ZM429 1372Q511 1372 590 1341T732 1246Q795 1183 826 1104T857 943T826 782T732 640Q647 552 580 449Q551 405 524 354T476 245T442 126T429 0Q429 64 416 126T382 245T333 353T277 449Q210 552 126
640Q63 703 32 782T0 943T31 1104T126 1246Q189 1309 267 1340T429 1372ZM514 943Q514 925 508 910T490 883T463 864T429 857Q411 857 396 864T368 882T350 909T343 943Q343 979 368 1004T429 1029Q464 1029 489 1004T514 943Z" />
<glyph unicode="]" glyph-name="null" horiz-adv-x="1571" d="M253 980Q214 918 193 848T172 702Q172 592 213 496T327 327T495 214T701 172Q777 172 847 193T980 253Q836 267 710 328T486 486T328 709T253 980ZM508 1373Q467 1302 444 1223T421 1057Q421 925
471 810T607 608T808 471T1056 421Q1144 421 1223 444T1372 508Q1340 398 1277 305T1125 145T929 39T701 0Q604 0 515 25T347 95T205 205T96 348T25 515T0 702Q0 822 38 929T144 1125T305 1277T508 1373Z" />
<glyph unicode="^" glyph-name="null" horiz-adv-x="1551" d="M686 0Q591 0 504 24T340 94T201 201T94 340T25 503T0 686Q0 828 54 953T201 1171T419 1319T686 1373Q828 1373 953 1319T1171 1172T1318 953T1372 686Q1372 591 1348 504T1279 340T1172 202T1033
94T869 25T686 0ZM343 686L685 345V601H1029V772H685V1030L343 686Z" />
<glyph unicode="_" glyph-name="null" horiz-adv-x="1551" d="M685 1370Q827 1370 951 1316T1169 1169T1316 952T1370 685Q1370 543 1316 419T1169 201T952 54T685 0Q543 0 419 54T201 201T54 418T0 685Q0 827 54 951T201 1169T418 1316T685 1370ZM1027 770H342V599H1027V770Z"
/>
<glyph unicode="`" glyph-name="null" horiz-adv-x="1551" d="M687 1372Q782 1372 869 1348T1033 1279T1171 1172T1279 1033T1348 869T1373 686Q1373 591 1349 504T1279 340T1172 201T1033 94T869 25T687 0Q545 0 420 54T202 201T54 419T0 686Q0 828 54 953T201
1171T420 1318T687 1372ZM687 1200Q580 1200 487 1160T323 1049T213 886T172 686Q172 602 197 527T268 388L984 1104Q921 1149 846 1174T687 1200ZM687 171Q793 171 886 211T1050 322T1160 485T1201 686Q1201 769 1176 844T1105 983L389 267Q452 222 527 197T687
171Z" />
<glyph unicode="a" glyph-name="null" horiz-adv-x="1674" d="M1373 0H0V1201H172V172H1201V1201H1373V0ZM429 686H258V858H429V686ZM772 686H601V858H772V686ZM1115 686H944V858H1115V686ZM429 343H258V515H429V343ZM772 343H601V515H772V343ZM944 343V515H1115L944
343ZM343 1115V1287Q343 1305 350 1320T368 1347T395 1365T429 1372Q465 1372 490 1347T515 1287V1115Q515 1097 509 1082T490 1055T463 1036T429 1029Q411 1029 396 1036T369 1054T350 1081T343 1115ZM858 1115V1287Q858 1322 883 1347T944 1372Q962 1372 977
1366T1004 1348T1023 1321T1030 1287V1115Q1030 1097 1023 1082T1005 1055T978 1036T944 1029Q926 1029 911 1036T883 1054T865 1081T858 1115Z" />
<glyph unicode="b" glyph-name="null" horiz-adv-x="1561" d="M770 685L1027 514L0 0L599 514L342 685L1370 1370L770 685Z" />
<glyph unicode="c" glyph-name="null" horiz-adv-x="1551" d="M685 1199Q578 1199 485 1159T322 1049T212 885T171 685Q171 578 211 485T321 322T484 212T685 171Q791 171 885 211T1048 321T1158 484T1199 685Q1199 791 1159 885T1049 1048T885 1158T685 1199ZM685
1370Q827 1370 951 1316T1169 1169T1316 952T1370 685Q1370 543 1316 419T1169 201T952 54T685 0Q543 0 419 54T201 201T54 418T0 685Q0 827 54 951T201 1169T418 1316T685 1370ZM796 453L629 621Q615 633 607 649T599 685V1027H771V721L918 574L796 453Z" />
<glyph unicode="d" glyph-name="null" horiz-adv-x="1674" d="M1373 943V0L1033 284L690 0L346 284L0 2V1372H945L1373 943ZM1202 689H687V1203H172V345L347 483L690 200L1028 480Q1029 481 1030 481T1032 483L1033 484L1202 345V689ZM1202 860L859 1203V860H1202Z" />
<glyph unicode="e" glyph-name="null" horiz-adv-x="1497" d="M1200 1372V0H171Q136 0 105 13T50 50T14 104T0 171V1200Q0 1236 13 1267T50 1321T104 1358T171 1372H1200ZM1029 1200H858V855L685 1027L514 856V1200H343V171H1029V1200Z" />
<glyph unicode="f" glyph-name="null" horiz-adv-x="1532" d="M862 1370Q967 1370 1059 1330T1221 1222T1330 1061T1370 863Q1370 758 1330 666T1221 504T1060 395T862 355Q811 355 765 365T673 392L281 0L0 282L392 674Q375 718 364 765T353 863Q353 968 393
1060T502 1221T664 1330T862 1370ZM862 526Q932 526 993 552T1100 624T1172 731T1199 863Q1199 932 1173 993T1100 1101T993 1173T862 1200Q793 1200 732 1174T624 1101T552 994T525 863Q525 793 551 732T624 625T731 553T862 526Z" />
<glyph unicode="g" glyph-name="null" horiz-adv-x="1546" d="M500 1000Q500 973 490 949T462 908T421 880T370 870Q342 870 318 880T275 907T247 949T236 1000Q236 1027 246 1051T275 1093T317 1122T370 1133Q397 1133 420 1122T461 1093T489 1051T500 1000ZM569
1370L1370 569H801V0L0 801V1370H569ZM151 1215V863Q159 855 188 827T260 756T352 663T455 560T557 457T647 366V719H1000Q961 759 911 809T809 912T706 1016T612 1109T541 1179T503 1215H151Z" />
<glyph unicode="h" glyph-name="null" horiz-adv-x="1581" d="M992 1109Q959 1109 929 1094T876 1062Q849 1042 826 1016L687 867L547 1016Q523 1042 497 1062Q474 1079 444 1094T382 1109Q342 1109 307 1095T244 1057T198 1000T174 929L687 341L1199 929Q1193
967 1175 1000T1130 1057T1067 1095T992 1109ZM992 1280Q1071 1280 1140 1250T1261 1168T1343 1047T1373 899V867L687 80L0 867V899Q0 978 30 1047T112 1168T233 1250T382 1280Q479 1280 556 1234T687 1115Q739 1188 817 1234T992 1280Z" />
<glyph unicode="i" glyph-name="null" horiz-adv-x="859" d="M85 686Q121 686 146 661T171 601V258Q171 222 146 197T85 172H0V0H686V172H600Q582 172 567 178T540 197T521 224T514 258V858H0V686H85ZM514 1201Q514 1165 501 1134T464 1080T409 1043T343 1029Q307
1029 276 1042T222 1079T185 1134T171 1201Q171 1237 184 1268T221 1322T276 1359T343 1373Q378 1373 409 1360T463 1323T500 1268T514 1201Z" />
<glyph unicode="j" glyph-name="null" horiz-adv-x="1600" d="M1027 856Q1091 856 1153 838T1263 780T1340 674T1370 514Q1370 422 1341 357T1263 251T1153 190T1027 171H856Q821 171 790 158T735 121T699 67T685 0Q614 0 552 27T443 100T369 209T342 342V514Q342
565 353 607T382 685H342Q278 685 217 704T107 764T30 870T0 1027Q0 1122 29 1187T107 1293T216 1352T342 1370H685Q749 1370 810 1350T920 1288T997 1181T1027 1027V856ZM514 856Q598 856 669 819T788 719Q819 743 837 778T856 856V1027Q856 1083 839 1117T795
1169T739 1193T685 1199H342Q278 1199 243 1180T192 1133T174 1077T171 1027Q171 1011 173 983T192 926T243 877T342 856H514ZM1027 342Q1070 342 1099 352T1148 377T1177 412T1192 450T1198 486T1199 514Q1199 533 1197 562T1178 619T1126 665T1027 685H980Q958
647 927 616T858 562T776 527T685 514Q685 564 660 603T592 664Q562 646 538 610T514 514V342Q514 300 532 265T582 206Q630 269 700 305T856 342H1027ZM1015 771Q1014 768 1013 765T1011 759Q1012 762 1013 765T1015 771Z" />
<glyph unicode="k" glyph-name="null" horiz-adv-x="1527" d="M941 1199Q888 1199 842 1179T761 1123T706 1041T685 941Q685 930 687 920T692 893L706 804L644 743L171 270V171H342V342H514V514H685V585L736 633L743 644L808 706L897 688Q910 686 920 686T941
685Q995 685 1042 705T1124 760T1179 841T1199 941Q1199 994 1179 1041T1124 1123T1042 1178T941 1199ZM941 1370Q1030 1370 1108 1337T1244 1245T1336 1108T1370 941Q1370 853 1337 775T1245 639T1108 548T941 514Q921 514 903 515T863 521L856 514V342H685V171H514V0H0V342L521
863Q517 884 516 902T514 941Q514 1030 547 1108T639 1244T775 1336T941 1370ZM1027 941Q1027 905 1002 881T941 856Q905 856 881 880T856 941Q856 977 880 1002T941 1027Q977 1027 1002 1002T1027 941Z" />
<glyph unicode="l" glyph-name="null" horiz-adv-x="1306" d="M601 1372Q689 1372 767 1338T903 1246T995 1110T1029 943V257Q1029 204 1009 157T954 75T872 20T772 0H257Q204 0 157 20T75 75T20 157T0 257V857H858V943Q858 996 838 1043T782 1125T701 1180T601
1200Q548 1200 501 1180T419 1125T364 1043T343 943H172Q172 1031 205 1109T297 1246T434 1338T601 1372ZM772 171Q790 171 805 177T832 196T851 223T858 257V686H172V257Q172 221 197 196T257 171H772ZM600 428Q600 393 575 368T515 343Q479 343 454 368T429 428Q429
464 454 489T515 514Q550 514 575 489T600 428Z" />
<glyph unicode="m" glyph-name="null" horiz-adv-x="1669" d="M689 718L0 1042V1209H1372V1041L689 718ZM690 528L1372 852V180H0V852L690 528Z" />
<glyph unicode="n" glyph-name="null" horiz-adv-x="1325" d="M685 1370Q756 1370 818 1343T926 1270T1000 1161T1027 1027V342Q1027 271 1000 209T927 101T818 27T685 0H342Q271 0 209 27T101 100T27 209T0 342V1027Q0 1098 27 1160T100 1269T209 1343T342 1370H685ZM514
82Q550 82 575 108T601 171Q601 207 576 233T514 259Q495 259 479 252T451 233T432 205T425 171Q425 134 450 108T514 82ZM856 1027Q856 1063 843 1094T806 1148T752 1185T685 1199H342Q307 1199 276 1186T221 1149T185 1094T171 1027V342H856V1027Z" />
<glyph unicode="o" glyph-name="null" horiz-adv-x="1669" d="M1370 0H0V856H1370V0ZM770 1370H1199L1370 1027H770V1370ZM599 1027H0L171 1370H599V1027Z" />
<glyph unicode="p" glyph-name="null" horiz-adv-x="1586" d="M1272 1272Q1322 1222 1347 1159T1372 1030T1347 901T1272 787L486 0H0L2 486L787 1272Q838 1323 901 1347T1030 1372Q1096 1372 1158 1348T1272 1272ZM1149 906L907 1149L180 422Q205 444 235 454T297
465T358 452T412 416Q437 390 449 359T462 294T450 229T412 172H415L1149 906Z" />
<glyph unicode="q" glyph-name="null" horiz-adv-x="1581" d="M429 1119Q376 1119 329 1099T247 1043T192 961T171 861V433Q171 391 190 355T240 295Q288 358 359 395T514 433H857Q928 433 990 460T1099 533T1173 642T1200 776Q1200 847 1173 909T1100 1018T991
1092T857 1119H429ZM857 1290Q964 1290 1058 1250T1221 1140T1331 976T1372 776Q1372 669 1332 576T1222 412T1058 302T857 261H514Q479 261 448 248T393 211T357 156T343 90Q272 90 210 117T101 190T27 299T0 433V861Q0 950 33 1028T125 1164T262 1256T429 1290H857Z"
/>
<glyph unicode="r" glyph-name="null" horiz-adv-x="1669" d="M342 171Q342 136 329 105T292 50T238 14T171 0Q136 0 105 13T50 50T14 104T0 171Q0 207 13 238T50 292T104 328T171 342Q207 342 238 329T292 292T328 238T342 171ZM258 685Q347 685 425 652T561
560T652 423T686 256H515Q515 310 495 357T440 439T358 494T258 514V685ZM256 1027Q362 1027 461 1000T645 922T801 802T922 646T999 461T1027 256H856Q856 339 835 415T774 559T681 680T559 774T416 834T256 856V1027ZM256 1370Q409 1370 551 1330T817 1218T1043
1044T1217 818T1330 552T1370 256H1199Q1199 386 1165 506T1070 732T922 923T731 1070T506 1165T256 1199V1370Z" />
<glyph unicode="s" glyph-name="null" horiz-adv-x="1591" d="M1112 0L685 329L256 0L422 530L0 856H514L685 1370L856 856H1370L947 529L1112 0Z" />
<glyph unicode="t" glyph-name="null" horiz-adv-x="1551" d="M1372 1029H1201V257Q1201 204 1181 158T1125 76T1043 21T943 0H429Q376 0 329 20T247 76T192 157T171 257V1029H0V1201H171H343Q343 1237 356 1268T393 1322T447 1358T514 1372H857Q893 1372 924
1359T978 1322T1015 1268T1029 1201H1201H1372V1029ZM1029 1029H343V257Q343 239 350 224T368 197T395 179T429 172H943Q979 172 1004 197T1029 257V1029ZM600 429Q600 411 594 396T575 369T548 350T514 343Q496 343 481 350T454 368T436 395T429 429Q429 447 435
462T453 489T480 508T514 515Q532 515 547 508T575 490T593 463T600 429ZM600 772Q600 754 594 739T575 712T548 693T514 686Q496 686 481 693T454 711T436 738T429 772Q429 790 435 805T453 832T480 851T514 858Q532 858 547 851T575 833T593 806T600 772ZM943
429Q943 411 937 396T918 369T891 350T857 343Q839 343 824 350T797 368T779 395T772 429Q772 447 778 462T796 489T823 508T857 515Q875 515 890 508T918 490T936 463T943 429ZM943 772Q943 754 937 739T918 712T891 693T857 686Q839 686 824 693T797 711T779
738T772 772Q772 790 778 805T796 832T823 851T857 858Q875 858 890 851T918 833T936 806T943 772Z" />
<glyph unicode="u" glyph-name="null" horiz-adv-x="1311" d="M514 686Q407 686 314 646T151 536T41 372T0 171Q0 136 13 105T50 50T104 14T171 0H857Q893 0 924 13T978 50T1015 104T1029 171Q1029 278 989 372T878 535T714 645T514 686ZM771 1115Q771 1062 751
1015T696 933T614 878T514 857Q461 857 414 877T332 933T277 1015T257 1115Q257 1168 277 1215T332 1297T414 1352T514 1372Q567 1372 614 1352T696 1297T751 1215T771 1115Z" />
<glyph unicode="v" glyph-name="null" horiz-adv-x="1556" d="M342 361Q271 361 209 388T101 461T27 570T0 704Q0 776 27 838T100 947T209 1019T342 1046V361ZM514 1046L856 1217V190L514 361V1046ZM1027 361V532Q1038 532 1048 534T1069 539Q1097 547 1121 562T1162
599T1189 647T1199 704Q1199 733 1189 760T1162 809T1121 847T1069 871Q1058 874 1048 874T1027 875V1046Q1048 1046 1068 1043T1110 1035Q1167 1021 1215 990T1297 915T1351 817T1370 704Q1370 645 1351 591T1298 494T1215 418T1110 371Q1070 361 1027 361Z" />
<glyph unicode="w" glyph-name="null" horiz-adv-x="1556" d="M1164 514Q1160 501 1156 490T1147 467L1230 263L1110 141L904 223Q893 218 881 214T856 204L771 0H600L514 203Q490 210 464 223L262 140L141 260L222 463Q210 488 201 514L0 599V770L201 856Q206
869 211 882T222 907L138 1108L260 1229L463 1148Q476 1153 488 1158T512 1167L597 1370H769L856 1167Q869 1162 880 1158T903 1147L1107 1232L1229 1110L1145 904Q1152 893 1156 882T1164 858L1370 773V601L1164 514ZM684 429Q737 429 783 449T865 504T920 585T940
685Q940 738 920 785T865 867T784 922T684 943Q630 943 583 923T501 867T446 785T426 685Q426 632 446 586T501 504T583 449T684 429Z" />
<glyph unicode="x" glyph-name="null" horiz-adv-x="1473" d="M1200 325L960 85L600 445L240 85L0 325L360 685L0 1045L240 1285L600 925L960 1285L1200 1045L839 685L1200 325V325Z" />
<glyph unicode="y" glyph-name="null" horiz-adv-x="1560" d="M512 160L0 672L244 917L512 649L1128 1265L1372 1020L512 160V160V160Z" />
<glyph unicode="z" glyph-name="null" horiz-adv-x="982" d="M599 1370Q635 1370 660 1345T685 1284V342Q685 271 658 209T585 101T476 27T342 0Q271 0 209 27T101 100T27 209T0 342V1284Q0 1320 25 1345T85 1370H599ZM427 342Q445 342 461 349T488 367T507 394T514
427Q514 463 489 488T427 514Q410 514 395 507T368 489T349 461T342 427Q342 392 367 367T427 342ZM514 1199H171V685H258Q258 720 283 745T344 770Q380 770 405 745T430 685H514V1199Z" />
<glyph unicode="{" glyph-name="null" horiz-adv-x="1551" d="M200 200Q103 298 52 422T0 685Q0 827 54 951T201 1169T418 1316T685 1370L770 1284L685 1199Q578 1199 485 1159T322 1049T212 885T171 685Q171 582 210 488T322 322L216 308L200 200ZM685 0L599
85L685 171Q791 171 885 211T1048 321T1158 484T1199 685Q1199 788 1160 881T1048 1048L1154 1062L1169 1170Q1267 1072 1318 947T1370 685Q1370 543 1316 419T1169 201T952 54T685 0Z" />
<glyph unicode="|" glyph-name="null" horiz-adv-x="1542" d="M1372 1029Q1372 981 1359 937T1323 854T1267 784T1195 730Q1196 719 1197 709T1199 687Q1199 580 1159 487T1048 323T884 213T684 172Q605 172 533 195T398 260L0 0L261 395Q218 458 194 531T170
687Q170 793 210 887T320 1050T483 1160T684 1201Q696 1201 708 1200T731 1197Q753 1236 784 1268T854 1323T936 1359T1029 1372Q1100 1372 1162 1345T1271 1272T1345 1163T1372 1029ZM684 344Q755 344 817 371T926 444T1000 553T1027 686Q1004 686 982 689T939
699L804 564Q779 539 748 527T683 514T619 526T562 564Q537 589 525 620T512 685T524 750T562 807L698 943Q693 963 690 984T686 1029V1031V1030H684Q613 1030 551 1003T442 930T368 821T341 687Q341 616 368 554T441 445T550 371T684 344ZM1029 857Q1064 857 1095
870T1149 907T1186 962T1200 1029Q1200 1064 1187 1095T1150 1149T1095 1186T1029 1200Q993 1200 962 1187T908 1150T871 1095T857 1029Q857 993 870 962T907 908T962 871T1029 857Z" />
<glyph unicode="}" glyph-name="null" horiz-adv-x="1537" d="M1029 686Q1029 615 1002 553T929 444T820 370T686 343Q615 343 553 370T444 443T370 552T343 686Q343 757 370 819T443 928T552 1002T686 1029Q757 1029 819 1002T928 929T1002 820T1029 686ZM686
1230Q641 1230 600 1223T517 1201H514L686 1373L857 1201H855Q815 1215 773 1222T686 1230ZM686 143Q731 143 773 150T855 172H857L686 0L514 172H517Q558 158 599 151T686 143ZM1230 686Q1230 731 1222 773T1200 855V858L1372 686L1200 515V517Q1214 558 1222
599T1230 686ZM142 686Q142 641 150 600T171 517V515L0 686L171 858V855Q158 815 150 773T142 686ZM1071 302Q1103 334 1126 369T1169 442L1171 444V201H929L930 203Q968 223 1003 246T1071 302ZM301 1071Q269 1039 246 1004T203 931L201 929V1172H444L441 1170Q403
1150 368 1127T301 1071ZM301 302Q333 270 368 247T441 203L444 201H201V444L203 442Q222 404 245 369T301 302ZM1071 1071Q1039 1103 1004 1126T930 1170L929 1172H1171V929L1169 931Q1150 969 1127 1004T1071 1071Z" />
<glyph unicode="~" glyph-name="null" horiz-adv-x="1586" d="M1244 759L1367 636L1247 515L1123 638L485 0H169L0 171V481L640 1122L512 1249L633 1370L760 1243L786 1267Q837 1318 899 1342T1027 1367Q1093 1367 1156 1343T1270 1267Q1320 1217 1345 1154T1370
1026T1345 897T1270 784L1244 759ZM1003 759L762 1000L208 447Q253 445 295 429T373 378Q410 341 426 294T441 199L1003 759Z" />
</font>
</defs>
</svg>
